<svg version="1.1" id="Layer_1" xmlns="http://www.w3.org/2000/svg" xmlns:xlink="http://www.w3.org/1999/xlink" x="0px" y="0px"
	 width="24" height="25" fill="none" viewBox="0 0 625 625" enable-background="new 0 0 625 625" xml:space="preserve">
<path fill="none" opacity="1.000000" stroke="none" 
	d="
M407.000000,626.000000 
	C271.333344,626.000000 136.166718,626.000000 1.000054,626.000000 
	C1.000036,417.666718 1.000036,209.333450 1.000018,1.000138 
	C209.333237,1.000092 417.666473,1.000092 625.999756,1.000046 
	C625.999878,209.333191 625.999878,417.666382 625.999939,625.999756 
	C553.166687,626.000000 480.333344,626.000000 407.000000,626.000000 
M268.680115,206.388596 
	C268.786774,208.542068 268.986420,210.695511 268.986755,212.848999 
	C269.002319,306.642670 269.000214,400.436310 269.000244,494.229980 
	C269.000244,496.333679 269.000244,498.437378 269.000244,500.560730 
	C299.362915,500.560730 329.052399,500.560730 359.204437,500.560730 
	C359.204437,402.237366 359.204437,304.352417 359.204437,205.799652 
	C394.358398,205.799652 429.051697,205.799652 463.638000,205.799652 
	C463.638000,178.888199 463.638000,152.648224 463.638000,126.000046 
	C461.307892,126.000046 459.337616,126.000038 457.367340,126.000038 
	C361.741119,126.000038 266.114929,125.999130 170.488708,126.006989 
	C168.659149,126.007141 166.829590,126.110962 164.149612,126.143715 
	C163.766571,127.610008 163.066940,129.073013 163.051743,130.543121 
	C162.951996,140.184616 162.999741,149.827652 162.999969,159.470184 
	C163.000305,172.770233 162.980270,186.070343 163.015991,199.370300 
	C163.025421,202.887100 163.472107,206.036133 168.257370,206.021439 
	C201.504333,205.919388 234.751541,205.887787 268.680115,206.388596 
z"/>
<path fill="#3245AE" opacity="1.000000" stroke="none" 
	d="
M165.000031,126.166412 
	C166.829590,126.110962 168.659149,126.007141 170.488708,126.006989 
	C266.114929,125.999130 361.741119,126.000038 457.367340,126.000038 
	C459.337616,126.000038 461.307892,126.000046 463.638000,126.000046 
	C463.638000,152.648224 463.638000,178.888199 463.638000,205.799652 
	C429.051697,205.799652 394.358398,205.799652 359.204437,205.799652 
	C359.204437,304.352417 359.204437,402.237366 359.204437,500.560730 
	C329.052399,500.560730 299.362915,500.560730 269.000244,500.560730 
	C269.000244,498.437378 269.000244,496.333679 269.000244,494.229980 
	C269.000214,400.436310 269.002319,306.642670 268.986755,212.848999 
	C268.986420,210.695511 268.786774,208.542068 268.061615,205.867798 
	C264.876129,204.898438 262.310425,204.068451 259.741974,204.059799 
	C231.453079,203.964371 203.163742,204.018585 174.874588,203.981079 
	C166.387207,203.969818 165.032867,202.599899 165.018036,194.060486 
	C164.978729,171.429184 165.001785,148.797775 165.000031,126.166412 
z"/>
<path fill="#3146AE" opacity="1.000000" stroke="none" 
	d="
M164.574829,126.155067 
	C165.001785,148.797775 164.978729,171.429184 165.018036,194.060486 
	C165.032867,202.599899 166.387207,203.969818 174.874588,203.981079 
	C203.163742,204.018585 231.453079,203.964371 259.741974,204.059799 
	C262.310425,204.068451 264.876129,204.898438 267.720886,205.590302 
	C234.751541,205.887787 201.504333,205.919388 168.257370,206.021439 
	C163.472107,206.036133 163.025421,202.887100 163.015991,199.370300 
	C162.980270,186.070343 163.000305,172.770233 162.999969,159.470184 
	C162.999741,149.827652 162.951996,140.184616 163.051743,130.543121 
	C163.066940,129.073013 163.766571,127.610008 164.574829,126.155067 
z"/>
</svg>