<svg version="1.1" id="Layer_1" xmlns="http://www.w3.org/2000/svg" xmlns:xlink="http://www.w3.org/1999/xlink" x="0px" y="0px"
	 width="100%" viewBox="0 0 2480 194" enable-background="new 0 0 2480 194" xml:space="preserve">
<path fill="#000000" opacity="1.000000" stroke="none" 
	d="
M2481.000000,174.000000 
	C2481.000000,180.998734 2481.000000,187.997452 2481.000000,194.998093 
	C1750.300659,195.000000 1019.601196,195.000000 288.271729,194.621857 
	C286.998505,191.613556 286.821625,188.751175 285.644135,186.387207 
	C255.735565,126.341774 225.716095,66.351578 195.758789,6.330363 
	C194.931915,4.673669 194.575684,2.782065 194.000000,1.000000 
	C956.333313,1.000000 1718.666626,1.000000 2481.000000,1.000000 
	C2481.000000,20.438158 2481.000000,39.768173 2480.621094,59.682446 
	C2479.835693,59.603916 2479.232666,58.990440 2479.052246,58.271015 
	C2474.966797,41.982151 2465.036621,31.073790 2449.152100,25.576006 
	C2438.988037,22.058180 2428.398682,22.144630 2417.877441,22.035763 
	C2400.394287,21.854858 2382.907715,21.986532 2365.422607,21.986557 
	C2363.473389,21.986559 2361.523926,21.986555 2359.351318,21.986555 
	C2359.351318,72.565193 2359.351318,122.566544 2359.351318,172.672974 
	C2371.600586,172.672974 2383.495605,172.672974 2396.095703,172.672974 
	C2396.095703,156.331696 2396.095703,140.306229 2396.095703,124.000839 
	C2400.783691,124.000839 2404.779785,124.200752 2408.744629,123.934959 
	C2411.695557,123.737144 2412.973145,124.994957 2414.309326,127.490273 
	C2421.764648,141.412872 2429.518555,155.175293 2437.045654,169.060211 
	C2438.944336,172.562607 2441.203613,174.251953 2445.533936,174.121826 
	C2457.346436,173.766907 2469.176758,173.999908 2481.000000,174.000000 
M2046.069336,23.040909 
	C2006.509521,23.040909 1966.949585,23.040909 1927.301025,23.040909 
	C1927.301025,33.986225 1927.301025,44.228004 1927.301025,55.137657 
	C1941.289917,55.137657 1954.993042,55.137657 1969.145020,55.137657 
	C1969.145020,95.033630 1969.145020,134.260681 1969.145020,173.572083 
	C1981.644775,173.572083 1993.667969,173.572083 2006.170898,173.572083 
	C2006.170898,133.921188 2006.170898,94.696632 2006.170898,54.833233 
	C2020.101685,54.833233 2033.550415,54.833233 2047.708252,54.389149 
	C2047.805176,45.325478 2047.944946,36.261845 2047.952759,27.198105 
	C2047.953979,25.854607 2047.332397,24.510569 2046.069336,23.040909 
M1136.000000,117.500000 
	C1136.000000,108.109001 1136.000000,98.718002 1136.000000,87.899132 
	C1137.764771,89.996918 1138.666138,90.948181 1139.433105,91.997520 
	C1158.542236,118.142273 1177.713257,144.242706 1196.621704,170.531891 
	C1198.597046,173.278336 1200.518311,174.067825 1203.535156,174.034851 
	C1212.365356,173.938309 1221.197388,174.012451 1230.028687,173.989243 
	C1231.613159,173.985077 1233.197388,173.835632 1234.633911,173.760941 
	C1234.633911,123.214462 1234.633911,73.308105 1234.633911,23.301926 
	C1222.687134,23.301926 1211.108276,23.301926 1198.998169,23.301926 
	C1198.998169,52.286125 1198.998169,80.974960 1198.998169,110.556732 
	C1197.303223,108.770538 1196.173584,107.809402 1195.319336,106.646065 
	C1175.488403,79.640694 1155.704468,52.600704 1135.823486,25.632326 
	C1134.947998,24.444881 1133.249390,23.157118 1131.910400,23.130735 
	C1121.464478,22.924919 1111.012817,23.016897 1100.383057,23.016897 
	C1100.383057,73.587555 1100.383057,123.611519 1100.383057,173.681549 
	C1112.347900,173.681549 1123.927490,173.681549 1136.000000,173.681549 
	C1136.000000,155.077637 1136.000000,136.788818 1136.000000,117.500000 
M2219.325195,23.015285 
	C2206.879395,19.586048 2194.185791,18.551504 2181.622559,21.407360 
	C2155.232666,27.406176 2135.811035,42.405373 2125.118896,67.682182 
	C2116.019043,89.194977 2116.243652,110.994675 2126.570068,131.737503 
	C2140.960693,160.644516 2164.710205,175.840836 2197.482422,176.013763 
	C2220.328125,176.134323 2239.117676,167.536163 2254.746826,150.882446 
	C2276.676514,127.515579 2281.062744,91.661926 2267.167480,63.519901 
	C2257.232666,43.399097 2241.230469,30.271729 2219.325195,23.015285 
M761.905334,150.661194 
	C755.170959,139.424469 748.436584,128.187759 741.543823,116.686691 
	C743.374451,115.940720 744.571533,115.441589 745.776917,114.963440 
	C756.120117,110.860703 764.290649,104.348999 768.995605,94.004913 
	C774.213806,82.532593 775.270264,70.770653 772.273193,58.441799 
	C769.220093,45.882301 762.241333,36.553570 751.411499,29.663822 
	C741.490295,23.352118 730.303040,22.418285 719.214722,22.138514 
	C698.406738,21.613497 677.576050,21.981396 656.754761,22.000381 
	C655.309937,22.001699 653.865295,22.188299 652.403809,22.289900 
	C652.403809,72.642548 652.403809,122.658356 652.403809,172.665436 
	C664.720642,172.665436 676.630676,172.665436 689.207642,172.665436 
	C689.207642,156.305573 689.207642,140.268082 689.207642,123.999901 
	C693.535400,123.999901 697.220154,124.280769 700.841492,123.921852 
	C704.552063,123.554092 706.469727,125.202950 708.111267,128.250229 
	C715.678955,142.298676 723.463196,156.230713 730.996887,170.297073 
	C732.426514,172.966309 734.004211,174.123337 737.128906,174.071976 
	C748.452637,173.885895 759.781311,174.012299 771.107971,173.977646 
	C772.319275,173.973938 773.529724,173.687683 775.154053,173.479523 
	C770.601013,165.770447 766.349487,158.572021 761.905334,150.661194 
M1428.104980,66.588852 
	C1433.281860,59.965389 1438.576782,53.427513 1443.509155,46.626690 
	C1444.255615,45.597446 1443.958496,42.459133 1443.051025,41.799038 
	C1436.440063,36.990200 1430.003784,31.565275 1422.653076,28.226954 
	C1406.981445,21.109722 1390.380859,18.472673 1373.062256,20.927498 
	C1358.454468,22.998106 1345.603394,27.986292 1335.805420,39.622143 
	C1319.432495,59.066380 1323.220459,94.669876 1349.527466,106.567963 
	C1360.496948,111.529251 1372.507080,114.166870 1383.986450,118.032051 
	C1391.232788,120.471947 1398.594482,122.759407 1405.477295,126.017509 
	C1409.646362,127.990997 1410.365845,132.388626 1407.587646,135.548584 
	C1405.285034,138.167480 1402.289429,140.775513 1399.080078,141.893219 
	C1386.395386,146.310913 1373.826538,144.125488 1362.249878,138.386520 
	C1353.824219,134.209549 1346.315186,128.183411 1337.822632,122.604019 
	C1331.871216,130.924973 1325.347534,140.045944 1318.761230,149.254486 
	C1328.530640,159.085464 1339.437622,166.239456 1351.920532,171.083862 
	C1365.528076,176.364609 1379.729004,176.406998 1393.952759,175.949753 
	C1405.664795,175.573242 1416.705322,172.394028 1426.512207,165.902069 
	C1437.733887,158.473587 1443.689697,147.813766 1445.385864,134.408279 
	C1447.197632,120.089485 1444.754883,107.032036 1434.713379,96.348846 
	C1423.573120,84.496796 1408.251221,81.047218 1393.303345,76.943947 
	C1384.955566,74.652397 1376.534424,72.361908 1368.554688,69.078453 
	C1361.939941,66.356628 1361.652100,61.106403 1367.117065,56.463299 
	C1368.443604,55.336319 1370.167603,54.413319 1371.854492,54.017368 
	C1382.304932,51.564503 1392.678223,52.593246 1402.305176,56.915947 
	C1410.259033,60.487350 1417.581055,65.465355 1425.504272,70.004120 
	C1425.944946,69.500252 1426.923340,68.381699 1428.104980,66.588852 
M1721.000000,127.500000 
	C1721.000000,142.902100 1721.000000,158.304214 1721.000000,173.627167 
	C1733.731567,173.627167 1745.632812,173.627167 1757.995361,173.627167 
	C1757.995361,164.466980 1757.995483,155.674225 1757.995483,146.881470 
	C1757.995483,138.104782 1757.995361,129.328110 1757.995361,120.000160 
	C1760.334839,120.000160 1762.124023,120.000168 1763.913330,120.000168 
	C1775.069580,120.000175 1786.233643,120.258873 1797.380127,119.928665 
	C1808.921021,119.586784 1819.370483,115.721771 1827.755371,107.644699 
	C1839.667725,96.169556 1843.563354,82.000633 1842.148438,65.584793 
	C1839.984863,40.482822 1820.518311,23.410618 1796.160156,23.069025 
	C1773.186035,22.746840 1750.203979,23.000000 1727.225342,23.000065 
	C1725.293213,23.000071 1723.361084,23.000065 1721.000000,23.000065 
	C1721.000000,57.963318 1721.000000,92.231659 1721.000000,127.500000 
M548.499512,54.999962 
	C554.916809,54.999962 561.334167,54.999962 567.634277,54.999962 
	C567.634277,43.891445 567.634277,33.643639 567.634277,23.294918 
	C527.359497,23.294918 487.450836,23.294918 447.404694,23.294918 
	C447.404694,33.958134 447.404694,44.322945 447.404694,55.183239 
	C461.724670,55.183239 475.644226,55.183239 490.224243,55.183239 
	C490.224243,95.043625 490.224243,134.407578 490.224243,173.615265 
	C502.483734,173.615265 514.064697,173.615265 526.133667,173.615265 
	C526.133667,133.988022 526.133667,94.743385 526.133667,54.999962 
	C533.583435,54.999962 540.541626,54.999962 548.499512,54.999962 
M865.524963,155.955994 
	C863.264160,161.706757 861.003357,167.457535 858.430969,174.000809 
	C871.100342,174.000809 882.880493,173.723053 894.635803,174.142563 
	C899.106689,174.302124 900.728149,172.347641 901.987549,168.752563 
	C909.417664,147.542404 916.915100,126.355751 924.419739,105.171745 
	C931.759521,84.453392 939.144531,63.751083 946.488831,43.034332 
	C948.771362,36.595879 950.985596,30.133234 953.468201,23.000275 
	C942.361328,23.000275 932.061096,23.162804 921.770447,22.918648 
	C917.768677,22.823700 916.183594,24.274675 914.782593,28.048285 
	C907.075562,48.807285 898.946228,69.409325 890.980469,90.072433 
	C882.604980,111.798203 874.250732,133.532135 865.524963,155.955994 
M1000.903015,133.685547 
	C994.291870,116.827202 987.724854,99.951118 980.982788,83.145302 
	C980.461670,81.846230 978.726501,80.165520 977.526733,80.142136 
	C965.915588,79.915817 954.298218,80.006287 942.047791,80.006287 
	C945.146057,88.815987 948.115906,97.106644 950.979858,105.433708 
	C958.358704,126.888039 965.734131,148.343826 972.994141,169.838470 
	C974.067078,173.015106 975.764038,174.142776 979.142273,174.076752 
	C989.795166,173.868530 1000.454773,174.012253 1011.111694,173.986664 
	C1012.670532,173.982925 1014.228943,173.798935 1016.242554,173.668991 
	C1011.018066,160.234772 1006.007996,147.351807 1000.903015,133.685547 
M1551.500122,141.000336 
	C1544.421509,141.000336 1537.342896,141.000336 1530.349121,141.000336 
	C1530.349121,152.419769 1530.349121,162.993256 1530.349121,173.576599 
	C1566.036743,173.576599 1601.373291,173.576599 1636.651611,173.576599 
	C1636.651611,162.577820 1636.651611,152.004776 1636.651611,141.000336 
	C1608.370117,141.000336 1580.435059,141.000336 1551.500122,141.000336 
M1597.500000,83.000000 
	C1575.106445,83.000000 1552.712891,83.000000 1530.330078,83.000000 
	C1530.330078,94.050095 1530.330078,104.290558 1530.330078,114.596756 
	C1565.999023,114.596756 1601.336426,114.596756 1636.670532,114.596756 
	C1636.670532,103.950340 1636.670532,93.709793 1636.670532,83.000000 
	C1623.731201,83.000000 1611.115601,83.000000 1597.500000,83.000000 
M1637.000244,42.484383 
	C1637.000244,36.072662 1637.000244,29.660942 1637.000244,23.325947 
	C1600.922607,23.325947 1565.701904,23.325947 1530.429688,23.325947 
	C1530.429688,34.016186 1530.429688,44.374844 1530.429688,54.672752 
	C1566.081177,54.672752 1601.302002,54.672752 1637.000244,54.672752 
	C1637.000244,50.726410 1637.000244,47.100918 1637.000244,42.484383 
z"/>
<path fill="#3245AE" opacity="1.000000" stroke="none" 
	d="
M2481.000000,173.583344 
	C2469.176758,173.999908 2457.346436,173.766907 2445.533936,174.121826 
	C2441.203613,174.251953 2438.944336,172.562607 2437.045654,169.060211 
	C2429.518555,155.175293 2421.764648,141.412872 2414.309326,127.490273 
	C2412.973145,124.994957 2411.695557,123.737144 2408.744629,123.934959 
	C2404.779785,124.200752 2400.783691,124.000839 2396.095703,124.000839 
	C2396.095703,140.306229 2396.095703,156.331696 2396.095703,172.672974 
	C2383.495605,172.672974 2371.600586,172.672974 2359.351318,172.672974 
	C2359.351318,122.566544 2359.351318,72.565193 2359.351318,21.986555 
	C2361.523926,21.986555 2363.473389,21.986559 2365.422607,21.986557 
	C2382.907715,21.986532 2400.394287,21.854858 2417.877441,22.035763 
	C2428.398682,22.144630 2438.988037,22.058180 2449.152100,25.576006 
	C2465.036621,31.073790 2474.966797,41.982151 2479.052246,58.271015 
	C2479.232666,58.990440 2479.835693,59.603916 2480.621094,60.133350 
	C2481.000000,67.354256 2481.000000,74.708504 2480.625977,82.372864 
	C2479.902832,83.018608 2479.322998,83.304237 2479.238037,83.697060 
	C2475.550537,100.729919 2464.864258,111.169655 2448.535889,116.415993 
	C2448.663330,116.826286 2448.721680,117.321381 2448.952881,117.715027 
	C2458.658447,134.254105 2468.358643,150.796539 2478.159180,167.279373 
	C2478.658691,168.119034 2480.032959,168.438339 2481.000000,168.999985 
	C2481.000000,170.388885 2481.000000,171.777786 2481.000000,173.583344 
M2442.731934,75.709206 
	C2443.587402,65.586449 2440.903076,59.419323 2434.134766,57.152134 
	C2421.701904,52.987576 2408.952148,55.740814 2396.337891,55.049122 
	C2396.337891,66.390388 2396.337891,76.967636 2396.337891,88.469559 
	C2408.090820,87.944534 2419.545410,88.016342 2430.830811,86.670372 
	C2436.086182,86.043617 2440.963623,82.612900 2442.731934,75.709206 
z"/>
<path fill="#000000" opacity="1.000000" stroke="none" 
	d="
M1.000000,187.000000 
	C1.000000,125.096992 1.000000,63.193993 1.000000,1.000000 
	C32.020287,1.000000 63.041485,1.000000 94.738167,1.330691 
	C94.557793,3.256551 93.661407,4.831452 92.851929,6.449821 
	C63.538170,65.055641 34.243504,123.671028 4.873230,182.248505 
	C3.979276,184.031433 2.308570,185.424942 1.000000,187.000000 
z"/>
<path fill="#3245AE" opacity="1.000000" stroke="none" 
	d="
M1.000000,187.494736 
	C2.308570,185.424942 3.979276,184.031433 4.873230,182.248505 
	C34.243504,123.671028 63.538170,65.055641 92.851929,6.449821 
	C93.661407,4.831452 94.557793,3.256551 95.206825,1.330691 
	C127.687561,1.000000 160.375122,1.000000 193.531342,1.000000 
	C194.575684,2.782065 194.931915,4.673669 195.758789,6.330363 
	C225.716095,66.351578 255.735565,126.341774 285.644135,186.387207 
	C286.821625,188.751175 286.998505,191.613556 287.820801,194.621857 
	C192.333328,195.000000 96.666664,195.000000 1.000000,195.000000 
	C1.000000,192.648315 1.000000,190.318893 1.000000,187.494736 
M89.500000,188.999069 
	C121.389359,188.999069 153.278717,188.999069 186.021866,188.999069 
	C156.290466,129.545517 126.987793,70.949257 97.253174,11.489230 
	C67.441765,71.122292 38.138779,129.738327 8.513492,188.999084 
	C35.860920,188.999084 62.180458,188.999084 89.500000,188.999069 
M219.901596,68.635674 
	C210.283173,49.479557 200.560532,30.374384 191.147980,11.117634 
	C189.562729,7.874424 187.753448,6.916697 184.339111,6.933238 
	C158.859207,7.056680 133.378433,6.994750 107.897934,7.013803 
	C106.351112,7.014960 104.804436,7.211550 102.906952,7.341164 
	C103.609207,8.949542 104.015640,10.008965 104.520813,11.019008 
	C133.629410,69.219284 162.768433,127.404381 191.790298,185.647858 
	C193.109406,188.295181 194.621628,189.064255 197.422150,189.054138 
	C223.401932,188.960190 249.382187,189.002365 275.362305,188.990067 
	C276.622009,188.989471 277.881653,188.849243 279.897156,188.728912 
	C259.789703,148.592743 239.943176,108.977409 219.901596,68.635674 
z"/>
<path fill="#000000" opacity="1.000000" stroke="none" 
	d="
M2481.000000,168.531326 
	C2480.032959,168.438339 2478.658691,168.119034 2478.159180,167.279373 
	C2468.358643,150.796539 2458.658447,134.254105 2448.952881,117.715027 
	C2448.721680,117.321381 2448.663330,116.826286 2448.535889,116.415993 
	C2464.864258,111.169655 2475.550537,100.729919 2479.238037,83.697060 
	C2479.322998,83.304237 2479.902832,83.018608 2480.625977,82.841484 
	C2481.000000,111.354225 2481.000000,139.708450 2481.000000,168.531326 
z"/>
<path fill="#3245AE" opacity="1.000000" stroke="none" 
	d="
M1136.000000,118.000000 
	C1136.000000,136.788818 1136.000000,155.077637 1136.000000,173.681549 
	C1123.927490,173.681549 1112.347900,173.681549 1100.383057,173.681549 
	C1100.383057,123.611519 1100.383057,73.587555 1100.383057,23.016897 
	C1111.012817,23.016897 1121.464478,22.924919 1131.910400,23.130735 
	C1133.249390,23.157118 1134.947998,24.444881 1135.823486,25.632326 
	C1155.704468,52.600704 1175.488403,79.640694 1195.319336,106.646065 
	C1196.173584,107.809402 1197.303223,108.770538 1198.998169,110.556732 
	C1198.998169,80.974960 1198.998169,52.286125 1198.998169,23.301926 
	C1211.108276,23.301926 1222.687134,23.301926 1234.633911,23.301926 
	C1234.633911,73.308105 1234.633911,123.214462 1234.633911,173.760941 
	C1233.197388,173.835632 1231.613159,173.985077 1230.028687,173.989243 
	C1221.197388,174.012451 1212.365356,173.938309 1203.535156,174.034851 
	C1200.518311,174.067825 1198.597046,173.278336 1196.621704,170.531891 
	C1177.713257,144.242706 1158.542236,118.142273 1139.433105,91.997520 
	C1138.666138,90.948181 1137.764771,89.996918 1136.000000,87.899132 
	C1136.000000,98.718002 1136.000000,108.109001 1136.000000,118.000000 
z"/>
<path fill="#3245AE" opacity="1.000000" stroke="none" 
	d="
M2219.732910,23.054857 
	C2241.230469,30.271729 2257.232666,43.399097 2267.167480,63.519901 
	C2281.062744,91.661926 2276.676514,127.515579 2254.746826,150.882446 
	C2239.117676,167.536163 2220.328125,176.134323 2197.482422,176.013763 
	C2164.710205,175.840836 2140.960693,160.644516 2126.570068,131.737503 
	C2116.243652,110.994675 2116.019043,89.194977 2125.118896,67.682182 
	C2135.811035,42.405373 2155.232666,27.406176 2181.622559,21.407360 
	C2194.185791,18.551504 2206.879395,19.586048 2219.732910,23.054857 
M2231.545166,75.099449 
	C2229.976074,73.180031 2228.534424,71.137756 2226.818359,69.360352 
	C2209.736572,51.668995 2181.520020,52.848999 2165.695801,71.645050 
	C2151.701416,88.267426 2152.521729,111.845329 2168.323730,127.550354 
	C2179.078857,138.239578 2192.757812,141.644165 2207.609375,137.883438 
	C2224.503662,133.605484 2237.698486,117.794090 2238.142090,99.777145 
	C2238.358643,90.976051 2236.040527,83.221359 2231.545166,75.099449 
z"/>
<path fill="#3245AE" opacity="1.000000" stroke="none" 
	d="
M762.001709,151.017395 
	C766.349487,158.572021 770.601013,165.770447 775.154053,173.479523 
	C773.529724,173.687683 772.319275,173.973938 771.107971,173.977646 
	C759.781311,174.012299 748.452637,173.885895 737.128906,174.071976 
	C734.004211,174.123337 732.426514,172.966309 730.996887,170.297073 
	C723.463196,156.230713 715.678955,142.298676 708.111267,128.250229 
	C706.469727,125.202950 704.552063,123.554092 700.841492,123.921852 
	C697.220154,124.280769 693.535400,123.999901 689.207642,123.999901 
	C689.207642,140.268082 689.207642,156.305573 689.207642,172.665436 
	C676.630676,172.665436 664.720642,172.665436 652.403809,172.665436 
	C652.403809,122.658356 652.403809,72.642548 652.403809,22.289900 
	C653.865295,22.188299 655.309937,22.001699 656.754761,22.000381 
	C677.576050,21.981396 698.406738,21.613497 719.214722,22.138514 
	C730.303040,22.418285 741.490295,23.352118 751.411499,29.663822 
	C762.241333,36.553570 769.220093,45.882301 772.273193,58.441799 
	C775.270264,70.770653 774.213806,82.532593 768.995605,94.004913 
	C764.290649,104.348999 756.120117,110.860703 745.776917,114.963440 
	C744.571533,115.441589 743.374451,115.940720 741.543823,116.686691 
	C748.436584,128.187759 755.170959,139.424469 762.001709,151.017395 
M733.926636,62.783192 
	C730.776306,60.534180 727.743286,56.570663 724.454407,56.345535 
	C712.841370,55.550598 701.140686,56.036152 689.420227,56.036152 
	C689.420227,66.355118 689.420227,77.035278 689.420227,88.469307 
	C700.753418,87.965843 711.666016,87.795761 722.520508,86.912094 
	C733.817444,85.992409 740.232056,73.213730 733.926636,62.783192 
z"/>
<path fill="#3245AE" opacity="1.000000" stroke="none" 
	d="
M1428.003418,66.925995 
	C1426.923340,68.381699 1425.944946,69.500252 1425.504272,70.004120 
	C1417.581055,65.465355 1410.259033,60.487350 1402.305176,56.915947 
	C1392.678223,52.593246 1382.304932,51.564503 1371.854492,54.017368 
	C1370.167603,54.413319 1368.443604,55.336319 1367.117065,56.463299 
	C1361.652100,61.106403 1361.939941,66.356628 1368.554688,69.078453 
	C1376.534424,72.361908 1384.955566,74.652397 1393.303345,76.943947 
	C1408.251221,81.047218 1423.573120,84.496796 1434.713379,96.348846 
	C1444.754883,107.032036 1447.197632,120.089485 1445.385864,134.408279 
	C1443.689697,147.813766 1437.733887,158.473587 1426.512207,165.902069 
	C1416.705322,172.394028 1405.664795,175.573242 1393.952759,175.949753 
	C1379.729004,176.406998 1365.528076,176.364609 1351.920532,171.083862 
	C1339.437622,166.239456 1328.530640,159.085464 1318.761230,149.254486 
	C1325.347534,140.045944 1331.871216,130.924973 1337.822632,122.604019 
	C1346.315186,128.183411 1353.824219,134.209549 1362.249878,138.386520 
	C1373.826538,144.125488 1386.395386,146.310913 1399.080078,141.893219 
	C1402.289429,140.775513 1405.285034,138.167480 1407.587646,135.548584 
	C1410.365845,132.388626 1409.646362,127.990997 1405.477295,126.017509 
	C1398.594482,122.759407 1391.232788,120.471947 1383.986450,118.032051 
	C1372.507080,114.166870 1360.496948,111.529251 1349.527466,106.567963 
	C1323.220459,94.669876 1319.432495,59.066380 1335.805420,39.622143 
	C1345.603394,27.986292 1358.454468,22.998106 1373.062256,20.927498 
	C1390.380859,18.472673 1406.981445,21.109722 1422.653076,28.226954 
	C1430.003784,31.565275 1436.440063,36.990200 1443.051025,41.799038 
	C1443.958496,42.459133 1444.255615,45.597446 1443.509155,46.626690 
	C1438.576782,53.427513 1433.281860,59.965389 1428.003418,66.925995 
z"/>
<path fill="#3245AE" opacity="1.000000" stroke="none" 
	d="
M1721.000000,127.000000 
	C1721.000000,92.231659 1721.000000,57.963318 1721.000000,23.000065 
	C1723.361084,23.000065 1725.293213,23.000071 1727.225342,23.000065 
	C1750.203979,23.000000 1773.186035,22.746840 1796.160156,23.069025 
	C1820.518311,23.410618 1839.984863,40.482822 1842.148438,65.584793 
	C1843.563354,82.000633 1839.667725,96.169556 1827.755371,107.644699 
	C1819.370483,115.721771 1808.921021,119.586784 1797.380127,119.928665 
	C1786.233643,120.258873 1775.069580,120.000175 1763.913330,120.000168 
	C1762.124023,120.000168 1760.334839,120.000160 1757.995361,120.000160 
	C1757.995361,129.328110 1757.995483,138.104782 1757.995483,146.881470 
	C1757.995483,155.674225 1757.995361,164.466980 1757.995361,173.627167 
	C1745.632812,173.627167 1733.731567,173.627167 1721.000000,173.627167 
	C1721.000000,158.304214 1721.000000,142.902100 1721.000000,127.000000 
M1758.003174,70.502937 
	C1758.003174,76.254196 1758.003174,82.005455 1758.003174,87.999916 
	C1767.350464,87.999916 1775.846924,88.196838 1784.326782,87.908981 
	C1788.040771,87.782898 1791.930298,87.208000 1795.370728,85.880089 
	C1801.344971,83.574295 1805.882690,79.821617 1805.020630,68.971367 
	C1804.592651,63.585896 1799.773438,56.832325 1794.117065,56.304047 
	C1782.303467,55.200722 1770.400146,55.057594 1758.003174,54.495983 
	C1758.003174,60.250019 1758.003174,64.877998 1758.003174,70.502937 
z"/>
<path fill="#3245AE" opacity="1.000000" stroke="none" 
	d="
M2046.999023,54.833233 
	C2033.550415,54.833233 2020.101685,54.833233 2006.170898,54.833233 
	C2006.170898,94.696632 2006.170898,133.921188 2006.170898,173.572083 
	C1993.667969,173.572083 1981.644775,173.572083 1969.145020,173.572083 
	C1969.145020,134.260681 1969.145020,95.033630 1969.145020,55.137657 
	C1954.993042,55.137657 1941.289917,55.137657 1927.301025,55.137657 
	C1927.301025,44.228004 1927.301025,33.986225 1927.301025,23.040909 
	C1966.949585,23.040909 2006.509521,23.040909 2046.534180,23.561705 
	C2046.999023,34.332745 2046.999023,44.582989 2046.999023,54.833233 
z"/>
<path fill="#3245AE" opacity="1.000000" stroke="none" 
	d="
M547.999634,54.999962 
	C540.541626,54.999962 533.583435,54.999962 526.133667,54.999962 
	C526.133667,94.743385 526.133667,133.988022 526.133667,173.615265 
	C514.064697,173.615265 502.483734,173.615265 490.224243,173.615265 
	C490.224243,134.407578 490.224243,95.043625 490.224243,55.183239 
	C475.644226,55.183239 461.724670,55.183239 447.404694,55.183239 
	C447.404694,44.322945 447.404694,33.958134 447.404694,23.294918 
	C487.450836,23.294918 527.359497,23.294918 567.634277,23.294918 
	C567.634277,33.643639 567.634277,43.891445 567.634277,54.999962 
	C561.334167,54.999962 554.916809,54.999962 547.999634,54.999962 
z"/>
<path fill="#3245AE" opacity="1.000000" stroke="none" 
	d="
M865.706055,155.609253 
	C874.250732,133.532135 882.604980,111.798203 890.980469,90.072433 
	C898.946228,69.409325 907.075562,48.807285 914.782593,28.048285 
	C916.183594,24.274675 917.768677,22.823700 921.770447,22.918648 
	C932.061096,23.162804 942.361328,23.000275 953.468201,23.000275 
	C950.985596,30.133234 948.771362,36.595879 946.488831,43.034332 
	C939.144531,63.751083 931.759521,84.453392 924.419739,105.171745 
	C916.915100,126.355751 909.417664,147.542404 901.987549,168.752563 
	C900.728149,172.347641 899.106689,174.302124 894.635803,174.142563 
	C882.880493,173.723053 871.100342,174.000809 858.430969,174.000809 
	C861.003357,167.457535 863.264160,161.706757 865.706055,155.609253 
z"/>
<path fill="#5757C6" opacity="1.000000" stroke="none" 
	d="
M1000.950439,134.077194 
	C1006.007996,147.351807 1011.018066,160.234772 1016.242554,173.668991 
	C1014.228943,173.798935 1012.670532,173.982925 1011.111694,173.986664 
	C1000.454773,174.012253 989.795166,173.868530 979.142273,174.076752 
	C975.764038,174.142776 974.067078,173.015106 972.994141,169.838470 
	C965.734131,148.343826 958.358704,126.888039 950.979858,105.433708 
	C948.115906,97.106644 945.146057,88.815987 942.047791,80.006287 
	C954.298218,80.006287 965.915588,79.915817 977.526733,80.142136 
	C978.726501,80.165520 980.461670,81.846230 980.982788,83.145302 
	C987.724854,99.951118 994.291870,116.827202 1000.950439,134.077194 
z"/>
<path fill="#3245AE" opacity="1.000000" stroke="none" 
	d="
M1552.000000,141.000336 
	C1580.435059,141.000336 1608.370117,141.000336 1636.651611,141.000336 
	C1636.651611,152.004776 1636.651611,162.577820 1636.651611,173.576599 
	C1601.373291,173.576599 1566.036743,173.576599 1530.349121,173.576599 
	C1530.349121,162.993256 1530.349121,152.419769 1530.349121,141.000336 
	C1537.342896,141.000336 1544.421509,141.000336 1552.000000,141.000336 
z"/>
<path fill="#3245AE" opacity="1.000000" stroke="none" 
	d="
M1598.000000,83.000000 
	C1611.115601,83.000000 1623.731201,83.000000 1636.670532,83.000000 
	C1636.670532,93.709793 1636.670532,103.950340 1636.670532,114.596756 
	C1601.336426,114.596756 1565.999023,114.596756 1530.330078,114.596756 
	C1530.330078,104.290558 1530.330078,94.050095 1530.330078,83.000000 
	C1552.712891,83.000000 1575.106445,83.000000 1598.000000,83.000000 
z"/>
<path fill="#3245AE" opacity="1.000000" stroke="none" 
	d="
M1637.000244,42.979904 
	C1637.000244,47.100918 1637.000244,50.726410 1637.000244,54.672752 
	C1601.302002,54.672752 1566.081177,54.672752 1530.429688,54.672752 
	C1530.429688,44.374844 1530.429688,34.016186 1530.429688,23.325947 
	C1565.701904,23.325947 1600.922607,23.325947 1637.000244,23.325947 
	C1637.000244,29.660942 1637.000244,36.072662 1637.000244,42.979904 
z"/>
<path fill="#008080" opacity="1.000000" stroke="none" 
	d="
M2047.353638,54.611191 
	C2046.999023,44.582989 2046.999023,34.332745 2046.999023,23.624641 
	C2047.332397,24.510569 2047.953979,25.854607 2047.952759,27.198105 
	C2047.944946,36.261845 2047.805176,45.325478 2047.353638,54.611191 
z"/>
<path fill="#000000" opacity="1.000000" stroke="none" 
	d="
M2442.503418,76.055107 
	C2440.963623,82.612900 2436.086182,86.043617 2430.830811,86.670372 
	C2419.545410,88.016342 2408.090820,87.944534 2396.337891,88.469559 
	C2396.337891,76.967636 2396.337891,66.390388 2396.337891,55.049122 
	C2408.952148,55.740814 2421.701904,52.987576 2434.134766,57.152134 
	C2440.903076,59.419323 2443.587402,65.586449 2442.503418,76.055107 
z"/>
<path fill="#000000" opacity="1.000000" stroke="none" 
	d="
M89.000000,188.999084 
	C62.180458,188.999084 35.860920,188.999084 8.513492,188.999084 
	C38.138779,129.738327 67.441765,71.122292 97.253174,11.489230 
	C126.987793,70.949257 156.290466,129.545517 186.021866,188.999069 
	C153.278717,188.999069 121.389359,188.999069 89.000000,188.999084 
z"/>
<path fill="#000000" opacity="1.000000" stroke="none" 
	d="
M219.999115,68.998878 
	C239.943176,108.977409 259.789703,148.592743 279.897156,188.728912 
	C277.881653,188.849243 276.622009,188.989471 275.362305,188.990067 
	C249.382187,189.002365 223.401932,188.960190 197.422150,189.054138 
	C194.621628,189.064255 193.109406,188.295181 191.790298,185.647858 
	C162.768433,127.404381 133.629410,69.219284 104.520813,11.019008 
	C104.015640,10.008965 103.609207,8.949542 102.906952,7.341164 
	C104.804436,7.211550 106.351112,7.014960 107.897934,7.013803 
	C133.378433,6.994750 158.859207,7.056680 184.339111,6.933238 
	C187.753448,6.916697 189.562729,7.874424 191.147980,11.117634 
	C200.560532,30.374384 210.283173,49.479557 219.999115,68.998878 
z"/>
<path fill="#000000" opacity="1.000000" stroke="none" 
	d="
M2231.731934,75.419785 
	C2236.040527,83.221359 2238.358643,90.976051 2238.142090,99.777145 
	C2237.698486,117.794090 2224.503662,133.605484 2207.609375,137.883438 
	C2192.757812,141.644165 2179.078857,138.239578 2168.323730,127.550354 
	C2152.521729,111.845329 2151.701416,88.267426 2165.695801,71.645050 
	C2181.520020,52.848999 2209.736572,51.668995 2226.818359,69.360352 
	C2228.534424,71.137756 2229.976074,73.180031 2231.731934,75.419785 
z"/>
<path fill="#000000" opacity="1.000000" stroke="none" 
	d="
M734.028442,63.148201 
	C740.232056,73.213730 733.817444,85.992409 722.520508,86.912094 
	C711.666016,87.795761 700.753418,87.965843 689.420227,88.469307 
	C689.420227,77.035278 689.420227,66.355118 689.420227,56.036152 
	C701.140686,56.036152 712.841370,55.550598 724.454407,56.345535 
	C727.743286,56.570663 730.776306,60.534180 734.028442,63.148201 
z"/>
<path fill="#000000" opacity="1.000000" stroke="none" 
	d="
M1758.003174,70.004456 
	C1758.003174,64.877998 1758.003174,60.250019 1758.003174,54.495983 
	C1770.400146,55.057594 1782.303467,55.200722 1794.117065,56.304047 
	C1799.773438,56.832325 1804.592651,63.585896 1805.020630,68.971367 
	C1805.882690,79.821617 1801.344971,83.574295 1795.370728,85.880089 
	C1791.930298,87.208000 1788.040771,87.782898 1784.326782,87.908981 
	C1775.846924,88.196838 1767.350464,87.999916 1758.003174,87.999916 
	C1758.003174,82.005455 1758.003174,76.254196 1758.003174,70.004456 
z"/>
</svg>